<svg xmlns="http://www.w3.org/2000/svg" viewBox="0 0 100 30"><defs><style>.cls-1{isolation:isolate;}.cls-2{fill:#e3226a;}.cls-3,.cls-9{mix-blend-mode:multiply;}.cls-4{fill:#64c0ac;}.cls-5{fill:#f6ab00;}.cls-6{fill:#6fba2c;}.cls-7{fill:none;}.cls-8{fill:#ed6c00;}.cls-9{opacity:0.85;}.cls-10{fill:#1d2a73;}</style></defs><title>codung101_logo</title><g class="cls-1"><g id="圖層_1" data-name="圖層 1"><path class="cls-2" d="M14.62,16.23a1,1,0,0,1-1-1,5.89,5.89,0,0,1,5.88-5.89,1,1,0,1,1,0,2.08,3.81,3.81,0,0,0-3.8,3.81A1,1,0,0,1,14.62,16.23Z"/><g class="cls-3"><path class="cls-4" d="M19.46,21.08a5.89,5.89,0,0,1-5.88-5.88,1,1,0,0,1,2.08,0,3.81,3.81,0,0,0,3.8,3.8,1,1,0,0,1,0,2.08Z"/></g><g class="cls-3"><path class="cls-5" d="M19.46,21.08a1,1,0,0,1,0-2.08,3.81,3.81,0,0,0,3.81-3.8,1,1,0,0,1,2.08,0A5.89,5.89,0,0,1,19.46,21.08Z"/></g><g class="cls-3"><path class="cls-6" d="M24.31,16.23a1,1,0,0,1-1-1,3.82,3.82,0,0,0-3.81-3.81,1,1,0,0,1,0-2.08,5.89,5.89,0,0,1,5.89,5.89A1,1,0,0,1,24.31,16.23Z"/></g><rect class="cls-7" x="13.58" y="9.31" width="11.83" height="11.83"/><g class="cls-3"><path class="cls-4" d="M3.44,16.27a1,1,0,0,1-1-1A5.73,5.73,0,0,1,8.13,9.5a1,1,0,1,1,0,2.08,3.66,3.66,0,0,0-3.65,3.65A1,1,0,0,1,3.44,16.27Z"/></g><g class="cls-3"><path class="cls-5" d="M8.13,21a5.73,5.73,0,0,1-5.72-5.73,1,1,0,1,1,2.07,0,3.65,3.65,0,0,0,3.65,3.65,1,1,0,0,1,0,2.08Z"/></g><path class="cls-2" d="M8.13,21a1,1,0,0,1,0-2.08,3.65,3.65,0,0,0,2.5-1,1,1,0,1,1,1.42,1.51A5.68,5.68,0,0,1,8.13,21Z"/><g class="cls-3"><path class="cls-6" d="M11.39,12.89a1,1,0,0,1-.72-.29,3.65,3.65,0,0,0-2.54-1,1,1,0,0,1,0-2.08,5.74,5.74,0,0,1,4,1.6,1,1,0,0,1,0,1.47A1,1,0,0,1,11.39,12.89Z"/></g><rect class="cls-7" x="1.5" y="9.31" width="11.83" height="11.83"/><path class="cls-4" d="M27.45,20.79a1,1,0,0,1-1-1v-9a1,1,0,1,1,2.07,0v9A1,1,0,0,1,27.45,20.79Z"/><path class="cls-2" d="M31.55,11.75h-4.1a1,1,0,0,1,0-2.07h4.1a1,1,0,0,1,0,2.07Z"/><g class="cls-3"><path class="cls-6" d="M31.54,20.79H27.45a1,1,0,0,1,0-2.08h4.09a1,1,0,1,1,0,2.08Z"/></g><g class="cls-3"><path class="cls-8" d="M35.71,16.27a1,1,0,0,1-1-1,3.23,3.23,0,0,0-3.16-3.48,1,1,0,1,1,0-2.07,5.28,5.28,0,0,1,5.24,5.55A1,1,0,0,1,35.71,16.27Z"/></g><g class="cls-3"><path class="cls-5" d="M31.51,20.79a1,1,0,0,1,0-2.08,3.22,3.22,0,0,0,3.16-3.48,1,1,0,0,1,2.08,0A5.29,5.29,0,0,1,31.51,20.79Z"/></g><rect class="cls-7" x="25.67" y="9.31" width="11.83" height="11.83"/><g class="cls-3"><path class="cls-4" d="M55.92,16.27a1,1,0,0,1-1-1A5.74,5.74,0,0,1,60.61,9.5a1,1,0,0,1,0,2.08A3.66,3.66,0,0,0,57,15.23,1,1,0,0,1,55.92,16.27Z"/></g><g class="cls-3"><path class="cls-5" d="M60.61,21a5.74,5.74,0,0,1-5.73-5.73,1,1,0,1,1,2.08,0,3.65,3.65,0,0,0,3.65,3.65,1,1,0,0,1,0,2.08Z"/></g><g class="cls-3"><path class="cls-2" d="M60.61,21a1,1,0,1,1,0-2.08,3.91,3.91,0,0,0,2.6-1,1,1,0,1,1,1.42,1.51A6,6,0,0,1,60.61,21Z"/></g><g class="cls-3"><path class="cls-6" d="M63.86,12.89a1.07,1.07,0,0,1-.72-.29,3.61,3.61,0,0,0-2.53-1,1,1,0,1,1,0-2.08,5.7,5.7,0,0,1,4,1.6,1,1,0,0,1-.72,1.79Z"/></g><g class="cls-9"><path class="cls-10" d="M63.92,19.69a1,1,0,0,1-1-1V15.32a1,1,0,0,1,2.07,0v3.33A1,1,0,0,1,63.92,19.69Z"/></g><g class="cls-3"><path class="cls-8" d="M63.92,16.36H60.23a1,1,0,1,1,0-2.07h3.69a1,1,0,1,1,0,2.07Z"/></g><rect class="cls-7" x="54.01" y="9.31" width="11.83" height="11.83"/><path class="cls-2" d="M39.53,20.79a1,1,0,0,1-1-1v-9a1,1,0,1,1,2.07,0v9A1,1,0,0,1,39.53,20.79Z"/><rect class="cls-7" x="33.61" y="9.31" width="11.83" height="11.83"/><g class="cls-3"><path class="cls-2" d="M83.64,21a1,1,0,0,1,0-2.08c1.54,0,2.62-1.47,2.62-3.57s-1.35-3.73-2.62-3.73a1,1,0,0,1,0-2.08c2.59,0,4.7,2.61,4.7,5.81S86.36,21,83.64,21Z"/></g><g class="cls-3"><path class="cls-5" d="M83.64,21a4.44,4.44,0,0,1-3.48-1.67,6.21,6.21,0,0,1-1.32-4,6.36,6.36,0,0,1,1.41-4.06A4.49,4.49,0,0,1,83.64,9.5a1,1,0,1,1,0,2.08c-1.29,0-2.73,1.59-2.73,3.73s1.15,3.57,2.73,3.57a1,1,0,1,1,0,2.08Z"/></g><rect class="cls-7" x="77.67" y="9.31" width="11.83" height="11.83"/><rect class="cls-7" x="77.67" y="9.31" width="11.83" height="11.83"/><g class="cls-3"><g class="cls-3"><path class="cls-2" d="M72.92,20.79a1,1,0,0,1-1-1v-9a1,1,0,1,1,2.07,0v9A1,1,0,0,1,72.92,20.79Z"/></g></g><g class="cls-3"><g class="cls-3"><path class="cls-5" d="M70.58,12.51a1,1,0,0,1-1-.71,1,1,0,0,1,.66-1.31l2.35-.76a1,1,0,1,1,.64,2l-2.35.76A.86.86,0,0,1,70.58,12.51Z"/></g></g><rect class="cls-7" x="65.84" y="9.31" width="11.83" height="11.83"/><g class="cls-3"><path class="cls-5" d="M51.92,20.79a1,1,0,0,1-.79-.37l-7.66-9A1,1,0,1,1,45.05,10l7.66,9a1,1,0,0,1-.12,1.46A1,1,0,0,1,51.92,20.79Z"/></g><g class="cls-3"><path class="cls-6" d="M51.92,20.79a1,1,0,0,1-1-1v-9a1,1,0,1,1,2.08,0v9A1,1,0,0,1,51.92,20.79Z"/></g><g class="cls-3"><path class="cls-2" d="M44.26,20.79a1,1,0,0,1-1-1v-9a1,1,0,0,1,2.08,0v9A1,1,0,0,1,44.26,20.79Z"/></g><rect class="cls-7" x="42.17" y="9.31" width="11.83" height="11.83"/><g class="cls-3"><g class="cls-3"><path class="cls-2" d="M96.59,20.79a1,1,0,0,1-1-1v-9a1,1,0,0,1,2.08,0v9A1,1,0,0,1,96.59,20.79Z"/></g></g><g class="cls-3"><g class="cls-3"><path class="cls-5" d="M94.25,12.51a1,1,0,0,1-1-.71,1,1,0,0,1,.67-1.31l2.34-.76a1,1,0,0,1,1.31.67,1,1,0,0,1-.67,1.3l-2.34.76A.89.89,0,0,1,94.25,12.51Z"/></g></g><rect class="cls-7" x="89.51" y="9.31" width="11.83" height="11.83"/></g></g></svg>