<svg xmlns="http://www.w3.org/2000/svg" viewBox="0 0 150 30"><defs><style>.cls-1{isolation:isolate;}.cls-2{fill:#e3226a;}.cls-3,.cls-9{mix-blend-mode:multiply;}.cls-4{fill:#64c0ac;}.cls-5{fill:#f6ab00;}.cls-6{fill:#6fba2c;}.cls-7{fill:none;}.cls-8{fill:#ed6c00;}.cls-9{opacity:0.85;}.cls-10{fill:#1d2a73;}</style></defs><title>logo</title><g class="cls-1"><g id="圖層_1" data-name="圖層 1"><path class="cls-2" d="M20.85,16.71a1.53,1.53,0,0,1-1.53-1.53A8.68,8.68,0,0,1,28,6.51a1.53,1.53,0,1,1,0,3.06,5.62,5.62,0,0,0-5.62,5.61A1.52,1.52,0,0,1,20.85,16.71Z"/><g class="cls-3"><path class="cls-4" d="M28,23.85a8.68,8.68,0,0,1-8.68-8.67,1.53,1.53,0,1,1,3.06,0A5.62,5.62,0,0,0,28,20.79a1.53,1.53,0,0,1,0,3.06Z"/></g><g class="cls-3"><path class="cls-5" d="M28,23.85a1.53,1.53,0,1,1,0-3.06,5.62,5.62,0,0,0,5.61-5.61,1.53,1.53,0,0,1,3.06,0A8.68,8.68,0,0,1,28,23.85Z"/></g><g class="cls-3"><path class="cls-6" d="M35.14,16.71a1.52,1.52,0,0,1-1.53-1.53A5.61,5.61,0,0,0,28,9.57a1.53,1.53,0,1,1,0-3.06,8.68,8.68,0,0,1,8.67,8.67A1.53,1.53,0,0,1,35.14,16.71Z"/></g><rect class="cls-7" x="19.32" y="6.51" width="17.45" height="17.45"/><g class="cls-3"><path class="cls-4" d="M4.37,16.76a1.52,1.52,0,0,1-1.53-1.53,8.46,8.46,0,0,1,8.45-8.45,1.53,1.53,0,1,1,0,3.06A5.4,5.4,0,0,0,5.9,15.23,1.53,1.53,0,0,1,4.37,16.76Z"/></g><g class="cls-3"><path class="cls-5" d="M11.29,23.68a8.46,8.46,0,0,1-8.45-8.45,1.53,1.53,0,0,1,3.06,0,5.4,5.4,0,0,0,5.39,5.39,1.53,1.53,0,1,1,0,3.06Z"/></g><path class="cls-2" d="M11.29,23.68a1.53,1.53,0,1,1,0-3.06A5.36,5.36,0,0,0,15,19.16a1.53,1.53,0,0,1,2.1,2.23A8.42,8.42,0,0,1,11.29,23.68Z"/><g class="cls-3"><path class="cls-6" d="M16.08,11.78A1.56,1.56,0,0,1,15,11.35a5.36,5.36,0,0,0-3.73-1.51,1.53,1.53,0,1,1,0-3.06,8.41,8.41,0,0,1,5.85,2.36,1.54,1.54,0,0,1,.05,2.17A1.57,1.57,0,0,1,16.08,11.78Z"/></g><rect class="cls-7" x="1.5" y="6.51" width="17.45" height="17.45"/><path class="cls-4" d="M39.78,23.42a1.53,1.53,0,0,1-1.53-1.53V8.57a1.53,1.53,0,0,1,3.06,0V21.89A1.52,1.52,0,0,1,39.78,23.42Z"/><path class="cls-2" d="M45.81,10.1h-6a1.53,1.53,0,0,1,0-3.06h6a1.53,1.53,0,1,1,0,3.06Z"/><g class="cls-3"><path class="cls-6" d="M45.81,23.42h-6a1.53,1.53,0,0,1,0-3.06h6a1.53,1.53,0,0,1,0,3.06Z"/></g><g class="cls-3"><path class="cls-8" d="M52,16.76a1.52,1.52,0,0,1-1.53-1.53c0-3-2-5.13-4.67-5.13a1.53,1.53,0,0,1,0-3.06c4.4,0,7.73,3.52,7.73,8.19A1.53,1.53,0,0,1,52,16.76Z"/></g><g class="cls-3"><path class="cls-5" d="M45.76,23.42a1.53,1.53,0,0,1,0-3.06c2.7,0,4.67-2.16,4.67-5.13a1.53,1.53,0,1,1,3.06,0C53.49,19.9,50.16,23.42,45.76,23.42Z"/></g><rect class="cls-7" x="37.14" y="6.51" width="17.45" height="17.45"/><g class="cls-3"><path class="cls-4" d="M81.76,16.76a1.53,1.53,0,0,1-1.53-1.53,8.46,8.46,0,0,1,8.45-8.45,1.53,1.53,0,1,1,0,3.06,5.39,5.39,0,0,0-5.38,5.39A1.53,1.53,0,0,1,81.76,16.76Z"/></g><g class="cls-3"><path class="cls-5" d="M88.68,23.68a8.46,8.46,0,0,1-8.45-8.45,1.54,1.54,0,0,1,3.07,0,5.39,5.39,0,0,0,5.38,5.39,1.53,1.53,0,0,1,0,3.06Z"/></g><g class="cls-3"><path class="cls-2" d="M88.68,23.68a1.53,1.53,0,0,1,0-3.06,5.74,5.74,0,0,0,3.84-1.46,1.53,1.53,0,1,1,2.1,2.23A8.84,8.84,0,0,1,88.68,23.68Z"/></g><g class="cls-3"><path class="cls-6" d="M93.48,11.78a1.54,1.54,0,0,1-1.06-.43,5.38,5.38,0,0,0-3.74-1.51,1.53,1.53,0,0,1,0-3.06,8.41,8.41,0,0,1,5.86,2.36,1.54,1.54,0,0,1-1.06,2.64Z"/></g><g class="cls-9"><path class="cls-10" d="M93.57,21.81A1.53,1.53,0,0,1,92,20.28V15.37a1.53,1.53,0,1,1,3.06,0v4.91A1.54,1.54,0,0,1,93.57,21.81Z"/></g><g class="cls-3"><path class="cls-8" d="M93.57,16.9H88.12a1.53,1.53,0,0,1,0-3.06h5.45a1.53,1.53,0,1,1,0,3.06Z"/></g><rect class="cls-7" x="78.94" y="6.51" width="17.45" height="17.45"/><path class="cls-2" d="M57.58,23.42a1.53,1.53,0,0,1-1.53-1.53V8.57a1.53,1.53,0,0,1,3.06,0V21.89A1.52,1.52,0,0,1,57.58,23.42Z"/><rect class="cls-7" x="48.86" y="6.51" width="17.45" height="17.45"/><g class="cls-3"><path class="cls-2" d="M122.65,23.68a1.53,1.53,0,0,1,0-3.06c2.28,0,3.87-2.17,3.87-5.27,0-3.3-2-5.51-3.87-5.51a1.53,1.53,0,0,1,0-3.06c3.82,0,6.93,3.84,6.93,8.57S126.66,23.68,122.65,23.68Z"/></g><g class="cls-3"><path class="cls-5" d="M122.65,23.68a6.57,6.57,0,0,1-5.14-2.46,9.19,9.19,0,0,1-1.94-5.87,9.39,9.39,0,0,1,2.08-6,6.61,6.61,0,0,1,5-2.57,1.53,1.53,0,1,1,0,3.06c-1.9,0-4,2.36-4,5.51s1.69,5.27,4,5.27a1.53,1.53,0,1,1,0,3.06Z"/></g><rect class="cls-7" x="113.85" y="6.51" width="17.45" height="17.45"/><rect class="cls-7" x="113.85" y="6.51" width="17.45" height="17.45"/><g class="cls-3"><g class="cls-3"><path class="cls-2" d="M106.84,23.42a1.53,1.53,0,0,1-1.53-1.53V8.57a1.53,1.53,0,0,1,3.06,0V21.89A1.52,1.52,0,0,1,106.84,23.42Z"/></g></g><g class="cls-3"><g class="cls-3"><path class="cls-5" d="M103.39,11.22a1.53,1.53,0,0,1-.47-3l3.46-1.13a1.53,1.53,0,0,1,.94,2.92l-3.46,1.12A1.49,1.49,0,0,1,103.39,11.22Z"/></g></g><rect class="cls-7" x="96.39" y="6.51" width="17.45" height="17.45"/><g class="cls-3"><path class="cls-5" d="M75.86,23.42a1.5,1.5,0,0,1-1.16-.54L63.4,9.56a1.53,1.53,0,1,1,2.33-2L77,20.9a1.53,1.53,0,0,1-1.17,2.52Z"/></g><g class="cls-3"><path class="cls-6" d="M75.86,23.42a1.53,1.53,0,0,1-1.53-1.53V8.57a1.54,1.54,0,0,1,3.07,0V21.89A1.53,1.53,0,0,1,75.86,23.42Z"/></g><g class="cls-3"><path class="cls-2" d="M64.56,23.42A1.53,1.53,0,0,1,63,21.89V8.57a1.54,1.54,0,0,1,3.07,0V21.89A1.53,1.53,0,0,1,64.56,23.42Z"/></g><rect class="cls-7" x="61.49" y="6.51" width="17.45" height="17.45"/><g class="cls-3"><g class="cls-3"><path class="cls-2" d="M141.75,23.42a1.53,1.53,0,0,1-1.54-1.53V8.57a1.54,1.54,0,0,1,3.07,0V21.89A1.53,1.53,0,0,1,141.75,23.42Z"/></g></g><g class="cls-3"><g class="cls-3"><path class="cls-5" d="M138.29,11.22a1.53,1.53,0,0,1-.47-3l3.46-1.13a1.54,1.54,0,0,1,.95,2.92l-3.46,1.12A1.59,1.59,0,0,1,138.29,11.22Z"/></g></g><rect class="cls-7" x="131.3" y="6.51" width="17.45" height="17.45"/></g></g></svg>